<?xml version="1.0" encoding="UTF-8" standalone="no"?>
<!-- Created with Inkscape (http://www.inkscape.org/) -->

<svg
   width="75.022552mm"
   height="77.080566mm"
   viewBox="0 0 75.022552 77.080566"
   version="1.1"
   id="svg1"
   xml:space="preserve"
   xmlns="http://www.w3.org/2000/svg"
   xmlns:svg="http://www.w3.org/2000/svg"><defs
     id="defs1" /><g
     id="layer1"
     style="display:inline"
     transform="translate(-277.45911,-703.99548)"><rect
       style="opacity:1;fill:none;fill-opacity:1;stroke:none;stroke-width:4.14499;stroke-linecap:butt;stroke-linejoin:bevel;stroke-dasharray:none;stroke-dashoffset:0;paint-order:stroke fill markers"
       id="rect548"
       width="75.022552"
       height="77.080536"
       x="277.45914"
       y="703.99548" /><path
       id="path534"
       style="fill:#000000;fill-opacity:1;stroke:none;stroke-width:3.83669;stroke-linecap:butt;stroke-linejoin:bevel;stroke-dasharray:none;stroke-dashoffset:0;paint-order:stroke fill markers"
       d="m -206.92606,642.2683 c 0.14636,0.0366 0.28848,0.0722 0.42336,0.1059 0.42529,0.10629 1.15879,0.23603 1.48105,0.52678 0.11453,0.10332 0.1904,0.22085 0.23832,0.34945 0.15165,0.40696 -0.0222,1.13282 -0.10716,1.56279 -0.0815,0.41274 -0.13391,0.87707 0.0166,1.30357 0.14355,0.40677 0.72193,0.86524 1.0514,1.15438 0.52465,0.46043 0.93702,0.92959 0.81142,1.54067 -0.0875,0.42576 -0.56904,0.9852 -0.83142,1.33637 -0.11322,0.15153 -0.18561,0.25166 -0.24093,0.33143 -0.24974,0.36017 -0.66236,0.94128 -0.87066,1.32677 -0.13066,0.24179 -0.22213,0.49903 -0.27809,0.87655 -0.0642,0.4329 -0.0722,1.14522 -0.0767,1.58356 -0.008,0.76514 -0.003,1.65234 0.003,2.4167 0.003,0.43829 0.27439,0.56019 0.60497,0.27228 l 7.484,-6.51816 a 0.77547255,0.77547255 93.278601 0 0 0.0634,-1.10756 l -0.40049,-0.43877 c -0.29553,-0.32378 -0.29901,-0.85198 -0.0189,-1.18916 3.69191,-4.44376 5.91845,-10.0561 6.11386,-16.05772 0.0143,-0.43813 0.0148,-1.14907 0.001,-1.58722 -0.16903,-5.45956 -2.02226,-10.73421 -5.30468,-15.10013 -0.26343,-0.35038 -0.55886,-0.2793 -0.64821,0.14988 l -0.79883,3.83671 a 0.9760344,0.9760344 140.88062 0 1 -0.95554,0.77709 h -1.32292 a 0.94329746,0.94329746 40.079373 0 1 -0.92942,-0.78207 l -1.59935,-9.2197 c -0.0749,-0.43193 -0.42856,-0.98357 -0.79942,-1.21726 -1.05391,-0.66409 -2.34713,-1.37351 -3.21847,-1.81233 -0.39084,-0.19683 -0.71477,0.0145 -0.71411,0.45292 l 0.0511,34.13991 c 6.6e-4,0.43838 0.34596,0.87993 0.77121,0.98637 z m -21.98911,-35.46023 c -9.14772,4.1606 -15.18009,13.16535 -15.50689,23.24889 -0.0142,0.43813 -0.0142,1.14907 2e-5,1.5872 0.29821,9.18585 5.34036,17.46455 13.15125,22.01227 0.37886,0.22058 0.69362,0.13285 0.68387,-0.18297 -0.11831,-1.16836 -0.21002,-1.42555 -0.34092,-1.6674 -0.20833,-0.3849 -0.62061,-0.96573 -0.87025,-1.32602 -0.0553,-0.0799 -0.12777,-0.18011 -0.24109,-0.33183 -0.26232,-0.35117 -0.74391,-0.91061 -0.83132,-1.33643 -0.12542,-0.61093 0.28716,-1.07987 0.8119,-1.54018 0.32951,-0.28904 0.90939,-0.74875 1.05251,-1.15767 0.14942,-0.42693 0.0962,-0.89153 0.0144,-1.30421 -0.0848,-0.42796 -0.25828,-1.15234 -0.10658,-1.55933 0.0479,-0.12859 0.12383,-0.24612 0.23838,-0.34944 0.32228,-0.29068 1.05574,-0.42033 1.48111,-0.52635 0.13404,-0.0334 0.27523,-0.0686 0.42061,-0.10495 0.42531,-0.10622 0.77008,-0.54776 0.77008,-0.98614 v -11.56019 a 1.1547193,1.1547193 55.495505 0 0 -0.74107,-1.07809 l -3.7113,-1.42396 a 1.1547193,1.1547193 55.495505 0 1 -0.74107,-1.07809 v -1.1063 a 1.1522549,1.1522549 124.56166 0 1 0.74164,-1.07661 l 3.71016,-1.41504 a 1.1522744,1.1522744 124.56212 0 0 0.74165,-1.07661 l 2.3e-4,-14.18459 c 0,-0.43838 -0.32829,-0.65744 -0.72731,-0.47596 z"
       transform="translate(532.7722,112.35579)" /><path
       id="path535"
       style="fill:#000000;fill-opacity:1;stroke:none;stroke-width:3.83669;stroke-linecap:butt;stroke-linejoin:bevel;stroke-dasharray:none;stroke-dashoffset:0;paint-order:stroke fill markers"
       d="m -216.82269,611.37161 -1.66143,-0.0227 c -0.43834,-0.006 -0.86579,-0.35884 -0.95482,-0.78809 -0.26751,-1.28989 -0.80277,-3.86866 -1.09551,-5.26485 -0.09,-0.42903 -0.51732,-0.73824 -0.95129,-0.67637 -1.62456,0.23162 -3.22599,0.61397 -4.7835,1.14317 -0.41506,0.14102 -0.74762,0.62194 -0.74762,1.06032 v 34.17259 c 0,0.43838 0.34489,0.70806 0.77059,0.60338 0.28985,-0.0713 0.91401,-0.15509 1.25263,-0.42769 0.0195,-0.0157 0.0379,-0.0318 0.0555,-0.0485 0.31574,-0.29874 0.5184,-1.01586 0.6737,-1.42579 0.0607,-0.1602 0.1214,-0.32406 0.17907,-0.48528 0.1476,-0.41258 0.40863,-1.10219 0.35311,-1.53303 -0.0143,-0.11081 -0.0787,-0.55212 -0.14928,-0.98475 -0.0326,-0.19965 -0.0892,-0.71729 -0.0817,-1.15531 0.002,-0.11909 0.004,-0.7617 0.36427,-0.76179 0.90706,0.005 1.50656,0.0615 1.62813,-0.30783 0.0119,-0.036 0.11035,-0.40935 0.21425,-0.83521 0.26508,-1.0865 0.72416,-3.02152 0.9796,-4.10541 0.10053,-0.42658 0.17135,-1.20818 0.50435,-1.47772 0.0299,-0.0242 0.4709,-0.34362 0.31664,-0.70677 -0.0184,-0.0434 -0.19955,-0.39742 -0.30853,-0.82114 -0.0439,-0.17066 -0.0811,-0.35254 -0.10818,-0.53734 -0.0634,-0.43274 -0.0326,-1.16397 0.1709,-1.54842 0.0788,-0.14878 0.17571,-0.28429 0.28532,-0.39712 0.29711,-0.30582 1.05143,-0.33088 1.4898,-0.33107 0.26829,-1.3e-4 0.84114,6.2e-4 1.27952,-1.9e-4 0.26857,-5e-4 0.88506,0.0257 1.18245,0.3314 0.10964,0.11269 0.20663,0.24801 0.28544,0.3966 0.20381,0.38426 0.2346,1.11584 0.17097,1.54891 -0.0272,0.185 -0.0645,0.36708 -0.10852,0.5379 -0.10907,0.42333 -0.42761,1.19714 -0.11692,1.43553 0.0374,0.0287 0.34211,0.31322 0.43346,0.72866 0.008,0.0374 0.0954,0.41378 0.19596,0.84048 0.25546,1.0841 0.71459,3.01941 0.97966,4.1059 0.10387,0.42576 0.39062,1.16233 0.77493,1.15268 0.0381,-9.6e-4 0.42431,-0.012 0.86266,-0.0104 0.11307,4.2e-4 0.54762,0.18639 0.56285,0.5468 -0.0128,0.91223 -0.0771,1.35952 -0.14384,1.79275 -0.0307,0.19969 -0.13309,0.72578 -0.0294,1.1466 0.0267,0.10851 0.15385,0.5363 0.30144,0.94902 0.0577,0.16138 0.11845,0.3254 0.17918,0.48575 0.15522,0.40984 0.35794,1.12689 0.6738,1.42556 0.0177,0.0167 0.0362,0.0329 0.0558,0.0487 0.33875,0.27238 1.07303,0.38285 1.49864,0.48787 0.28974,0.0715 0.52458,-0.22584 0.52458,-0.66422 v -18.21186 a 1.1903392,1.1903392 56.303584 0 0 -0.73276,-1.09888 l -2.66208,-1.1085 a 1.185182,1.185182 56.41851 0 1 -0.72958,-1.09887 l 0.005,-1.25421 a 1.2125543,1.2125543 123.439 0 1 0.73191,-1.10836 l 2.65878,-1.14791 a 1.2072629,1.2072629 123.32408 0 0 0.72873,-1.10837 v -8.10281 c 0,-0.43838 -0.33377,-0.91606 -0.75035,-1.05251 -1.30341,-0.42693 -2.9548,-0.86553 -4.37219,-1.14553 -0.42963,-0.0849 -0.84357,0.20816 -0.92173,0.63951 l -0.97928,5.40456 a 0.93740489,0.93740489 140.52665 0 1 -0.9352,0.77018 z"
       transform="translate(532.7722,112.35579)" /></g></svg>
